<?xml version="1.0"?>
<svg xmlns="http://www.w3.org/2000/svg" viewBox="-8 0 512 512.00103" width="512px" height="512px" class=""><g><path d="m386.546875 110.175781h-276.121094l-110.425781 108.691407 248.484375 293.132812 248.488281-293.132812zm-91.101563 124.613281-46.867187 191.335938-46.871094-191.335938zm-84.097656-30 37.257813-53.398437 37.261719 53.398437zm66.019532-64.609374h74.519531l-37.261719 53.394531zm-94.777344 53.394531-37.261719-53.394531h74.519531zm-28.761719 11.214843h-96.753906l57.359375-56.460937zm16.988281 30 47.953125 195.757813-165.9375-195.757813zm155.519532 0h117.804687l-165.683594 195.453126zm17.050781-30 39.296875-56.316406 57.210937 56.316406zm0 0" data-original="#000000" class="active-path" data-old_color="#000000" fill="#FFFFFF"/><path d="m231.421875 0h30v62.171875h-30zm0 0" data-original="#000000" class="active-path" data-old_color="#000000" fill="#FFFFFF"/><path d="m307.273438 63.511719 24.328124-58.28125 27.6875 11.558593-24.328124 58.277344zm0 0" data-original="#000000" class="active-path" data-old_color="#000000" fill="#FFFFFF"/><path d="m133.542969 16.78125 27.6875-11.554688 24.328125 58.277344-27.6875 11.554688zm0 0" data-original="#000000" class="active-path" data-old_color="#000000" fill="#FFFFFF"/></g> </svg>
