<?xml version="1.0"?>
<svg xmlns="http://www.w3.org/2000/svg" height="512px" viewBox="0 0 480 480" width="512px" class=""><g><path d="m472 0h-464c-4.425781 0-8 3.574219-8 8v336c0 4.425781 3.574219 8 8 8h186.214844l-57.160156 100.03125c-.6875 1.207031-1.054688 2.578125-1.054688 3.96875v24h16v-21.871094l60.640625-106.128906h19.359375v128h16v-128h19.359375l60.640625 106.128906v21.871094h16v-24c0-1.390625-.367188-2.761719-1.054688-3.96875l-57.160156-100.03125h154.214844c22.054688 0 40-17.945312 40-40v-304c0-4.425781-3.574219-8-8-8zm-8 312c0 13.230469-10.769531 24-24 24h-424v-320h448zm0 0" data-original="#000000" class="active-path" data-old_color="#000000" fill="#FFFFFF"/><path d="m315.328125 132.609375-7.695313 41.941406c-.542968 2.976563.632813 6 3.039063 7.832031 2.417969 1.824219 5.632813 2.121094 8.359375.800782l40.96875-20.136719 40.96875 20.136719c1.128906.542968 2.328125.816406 3.527344.816406 1.710937 0 3.414062-.542969 4.832031-1.617188 2.40625-1.832031 3.582031-4.847656 3.039063-7.832031l-7.695313-41.941406 32.71875-29.808594c2.296875-2.097656 3.167969-5.328125 2.25-8.296875-.929687-2.960937-3.488281-5.128906-6.5625-5.542968l-45.671875-6.199219-20.335938-38.496094c-2.765624-5.25-11.375-5.25-14.140624 0l-20.335938 38.496094-45.671875 6.199219c-3.082031.421874-5.632813 2.582031-6.5625 5.542968-.917969 2.96875-.046875 6.199219 2.25 8.296875zm23.503906-34.546875c2.550781-.351562 4.792969-1.910156 5.992188-4.191406l15.175781-28.734375 15.175781 28.734375c1.199219 2.28125 3.441407 3.839844 5.992188 4.191406l32.785156 4.457031-23.34375 21.257813c-2.042969 1.855468-2.976563 4.636718-2.480469 7.359375l5.632813 30.679687-30.234375-14.855468c-1.121094-.546876-2.320313-.824219-3.527344-.824219s-2.414062.269531-3.527344.824219l-30.234375 14.855468 5.632813-30.679687c.496094-2.722657-.4375-5.503907-2.480469-7.359375l-23.34375-21.257813zm0 0" data-original="#000000" class="active-path" data-old_color="#000000" fill="#FFFFFF"/><path d="m120 187.3125 58.34375 58.34375c3.128906 3.128906 8.183594 3.128906 11.3125 0l104-104-11.3125-11.3125-98.34375 98.34375-58.34375-58.34375c-3.128906-3.128906-8.183594-3.128906-11.3125 0l-72 72 11.3125 11.3125zm0 0" data-original="#000000" class="active-path" data-old_color="#000000" fill="#FFFFFF"/><path d="m56 272h16v40h-16zm0 0" data-original="#000000" class="active-path" data-old_color="#000000" fill="#FFFFFF"/><path d="m88 240h16v72h-16zm0 0" data-original="#000000" class="active-path" data-old_color="#000000" fill="#FFFFFF"/><path d="m120 224h16v88h-16zm0 0" data-original="#000000" class="active-path" data-old_color="#000000" fill="#FFFFFF"/><path d="m152 264h16v48h-16zm0 0" data-original="#000000" class="active-path" data-old_color="#000000" fill="#FFFFFF"/><path d="m184 272h16v40h-16zm0 0" data-original="#000000" class="active-path" data-old_color="#000000" fill="#FFFFFF"/><path d="m216 240h16v72h-16zm0 0" data-original="#000000" class="active-path" data-old_color="#000000" fill="#FFFFFF"/><path d="m248 216h16v96h-16zm0 0" data-original="#000000" class="active-path" data-old_color="#000000" fill="#FFFFFF"/><path d="m280 184h16v128h-16zm0 0" data-original="#000000" class="active-path" data-old_color="#000000" fill="#FFFFFF"/><path d="m312 200h16v112h-16zm0 0" data-original="#000000" class="active-path" data-old_color="#000000" fill="#FFFFFF"/><path d="m344 224h16v88h-16zm0 0" data-original="#000000" class="active-path" data-old_color="#000000" fill="#FFFFFF"/><path d="m376 208h16v104h-16zm0 0" data-original="#000000" class="active-path" data-old_color="#000000" fill="#FFFFFF"/><path d="m408 256h16v56h-16zm0 0" data-original="#000000" class="active-path" data-old_color="#000000" fill="#FFFFFF"/><path d="m48 48h72v16h-72zm0 0" data-original="#000000" class="active-path" data-old_color="#000000" fill="#FFFFFF"/><path d="m136 48h48v16h-48zm0 0" data-original="#000000" class="active-path" data-old_color="#000000" fill="#FFFFFF"/><path d="m48 80h24v16h-24zm0 0" data-original="#000000" class="active-path" data-old_color="#000000" fill="#FFFFFF"/><path d="m88 80h96v16h-96zm0 0" data-original="#000000" class="active-path" data-old_color="#000000" fill="#FFFFFF"/><path d="m48 112h40v16h-40zm0 0" data-original="#000000" class="active-path" data-old_color="#000000" fill="#FFFFFF"/><path d="m104 112h16v16h-16zm0 0" data-original="#000000" class="active-path" data-old_color="#000000" fill="#FFFFFF"/><path d="m136 112h16v16h-16zm0 0" data-original="#000000" class="active-path" data-old_color="#000000" fill="#FFFFFF"/><path d="m168 112h16v16h-16zm0 0" data-original="#000000" class="active-path" data-old_color="#000000" fill="#FFFFFF"/></g> </svg>
